<svg id="Vrstva_1" data-name="Vrstva 1" xmlns="http://www.w3.org/2000/svg" viewBox="0 0 171.01 56.69"><defs><style>.cls-1{fill:#ffffff;}.cls-2{fill:#ffffff;}</style></defs><polygon class="cls-1" points="59.31 26.2 62.76 26.2 62.76 26.75 59.95 26.75 59.95 28.75 62.5 28.75 62.5 29.3 59.95 29.3 59.95 31.89 59.31 31.89 59.31 26.2"/><path class="cls-1" d="M64.77,31.51a1.31,1.31,0,0,0,.43-.08,1.41,1.41,0,0,0,.4-.22,1.17,1.17,0,0,0,.29-.3.62.62,0,0,0,.12-.35v-.73l-.66,0a3.22,3.22,0,0,0-.84.1,1,1,0,0,0-.49.29.76.76,0,0,0-.16.51.68.68,0,0,0,.25.56,1.06,1.06,0,0,0,.66.2m-.18.46a1.67,1.67,0,0,1-.69-.14,1.09,1.09,0,0,1-.47-.4,1.14,1.14,0,0,1-.17-.63,1.16,1.16,0,0,1,.46-1,2.71,2.71,0,0,1,1.5-.35l.79,0v-.34a.85.85,0,0,0-.24-.63,1,1,0,0,0-.75-.24,1.15,1.15,0,0,0-.65.18A.8.8,0,0,0,64,29h-.56a1.23,1.23,0,0,1,.22-.65,1.27,1.27,0,0,1,.54-.42,2.38,2.38,0,0,1,.84-.14,2.12,2.12,0,0,1,.85.15,1.08,1.08,0,0,1,.52.44,1.39,1.39,0,0,1,.18.73v2.83h-.53l0-.78a1.45,1.45,0,0,1-.62.67,1.74,1.74,0,0,1-.82.19"/><polygon class="cls-1" points="71.19 31.89 70.52 31.89 69.2 29.77 68.32 30.67 68.32 31.89 67.71 31.89 67.71 26.04 68.32 26.04 68.32 29.95 70.35 27.82 71.08 27.82 69.61 29.35 71.19 31.89"/><path class="cls-1" d="M73.42,32a2.43,2.43,0,0,1-.61-.09,1.47,1.47,0,0,1-.49-.27,1.14,1.14,0,0,1-.34-.44,1.4,1.4,0,0,1-.12-.6V27.82h.62v2.69a.94.94,0,0,0,.26.7,1.09,1.09,0,0,0,.79.26,1.16,1.16,0,0,0,.78-.25,1,1,0,0,0,.29-.76V27.82h.61v4.07h-.5l-.06-.77a1.05,1.05,0,0,1-.67.76,1.64,1.64,0,0,1-.56.09"/><path class="cls-1" d="M77.22,31.93a1.34,1.34,0,0,1-.48-.08.76.76,0,0,1-.29-.24.79.79,0,0,1-.14-.34,1.75,1.75,0,0,1,0-.4V26h.6v4.77a.83.83,0,0,0,.13.5.47.47,0,0,0,.33.16h.23v.4l-.18,0h-.16"/><path class="cls-1" d="M80.12,28.28H79.2v2.63a1,1,0,0,0,0,.34.25.25,0,0,0,.16.14,1.42,1.42,0,0,0,.33,0h.42v.42a.89.89,0,0,1-.23.05l-.35,0a1.22,1.22,0,0,1-.6-.12.55.55,0,0,1-.3-.32,1.45,1.45,0,0,1-.09-.54V28.28h-.66v-.46h.68l.14-1.17h.46v1.17h.92Z"/><path class="cls-1" d="M82.33,31.51a1.32,1.32,0,0,0,.44-.08,1.41,1.41,0,0,0,.4-.22,1.17,1.17,0,0,0,.29-.3.62.62,0,0,0,.12-.35v-.73l-.66,0a3.22,3.22,0,0,0-.84.1.91.91,0,0,0-.49.29.76.76,0,0,0-.16.51.68.68,0,0,0,.25.56,1,1,0,0,0,.65.2m-.17.46a1.71,1.71,0,0,1-.7-.14,1.12,1.12,0,0,1-.46-.4,1.14,1.14,0,0,1-.17-.63,1.16,1.16,0,0,1,.46-1,2.71,2.71,0,0,1,1.5-.35l.79,0v-.34a.85.85,0,0,0-.24-.63,1,1,0,0,0-.75-.24,1.15,1.15,0,0,0-.65.18.8.8,0,0,0-.36.56H81a1.23,1.23,0,0,1,.22-.65,1.27,1.27,0,0,1,.54-.42,2.38,2.38,0,0,1,.84-.14,2.12,2.12,0,0,1,.85.15,1.08,1.08,0,0,1,.52.44,1.39,1.39,0,0,1,.18.73v2.83h-.53l0-.78a1.45,1.45,0,0,1-.62.67,1.74,1.74,0,0,1-.82.19"/><path class="cls-1" d="M87.58,29.56h2.36a1.83,1.83,0,0,0-.12-.68,1.15,1.15,0,0,0-.39-.48,1.09,1.09,0,0,0-.65-.18,1.14,1.14,0,0,0-.68.2,1.1,1.1,0,0,0-.39.51,1.51,1.51,0,0,0-.13.63m0,.44a2,2,0,0,0,.13.74,1.3,1.3,0,0,0,.41.54,1.24,1.24,0,0,0,.71.2,1.26,1.26,0,0,0,.71-.2.84.84,0,0,0,.38-.55h.59a1.32,1.32,0,0,1-.33.68,1.42,1.42,0,0,1-.6.42,2,2,0,0,1-.74.14,1.92,1.92,0,0,1-1-.25,1.68,1.68,0,0,1-.66-.71A2.41,2.41,0,0,1,87,29.89a2.65,2.65,0,0,1,.22-1.13,1.6,1.6,0,0,1,.62-.75,2,2,0,0,1,1.95,0,1.62,1.62,0,0,1,.6.69,2.69,2.69,0,0,1,.2,1.07V30Z"/><path class="cls-1" d="M92.39,31.93a1.24,1.24,0,0,1-.47-.08.73.73,0,0,1-.3-.24.94.94,0,0,1-.14-.34,1.75,1.75,0,0,1,0-.4V26h.61v4.77a.84.84,0,0,0,.12.5.47.47,0,0,0,.33.16h.23v.4l-.18,0h-.16"/><path class="cls-1" d="M93.82,29.56h2.36a1.83,1.83,0,0,0-.12-.68,1.13,1.13,0,0,0-.38-.48,1.11,1.11,0,0,0-.65-.18,1.15,1.15,0,0,0-.69.2,1.25,1.25,0,0,0-.39.51,1.51,1.51,0,0,0-.13.63m0,.44a2,2,0,0,0,.13.74,1.24,1.24,0,0,0,.42.54,1.18,1.18,0,0,0,.7.2,1.29,1.29,0,0,0,.72-.2.82.82,0,0,0,.37-.55h.59a1.39,1.39,0,0,1-.32.68,1.52,1.52,0,0,1-.61.42,2,2,0,0,1-.74.14,1.86,1.86,0,0,1-1-.25,1.65,1.65,0,0,1-.67-.71,2.41,2.41,0,0,1-.24-1.12,2.65,2.65,0,0,1,.22-1.13A1.56,1.56,0,0,1,94,28a1.74,1.74,0,0,1,1-.27A1.76,1.76,0,0,1,96,28a1.62,1.62,0,0,1,.6.69,2.69,2.69,0,0,1,.2,1.07V30Z"/><polygon class="cls-1" points="101.17 31.89 100.5 31.89 99.18 29.77 98.31 30.67 98.31 31.89 97.69 31.89 97.69 26.04 98.31 26.04 98.31 29.95 100.33 27.82 101.06 27.82 99.59 29.35 101.17 31.89"/><path class="cls-1" d="M104,28.28h-.93v2.63a.94.94,0,0,0,0,.34.23.23,0,0,0,.16.14,1.42,1.42,0,0,0,.33,0H104v.42a.8.8,0,0,1-.22.05l-.35,0a1.29,1.29,0,0,1-.61-.12.62.62,0,0,1-.3-.32,1.71,1.71,0,0,1-.08-.54V28.28h-.66v-.46h.67l.15-1.17h.45v1.17H104Z"/><path class="cls-1" d="M104.84,31.89V27.82h.59v.74a1.09,1.09,0,0,1,.28-.47,1.13,1.13,0,0,1,.43-.26,1.27,1.27,0,0,1,.47-.09l.19,0a.39.39,0,0,1,.15,0v.6a.39.39,0,0,0-.17,0l-.17,0a1.93,1.93,0,0,0-.42,0,.93.93,0,0,0-.37.15.75.75,0,0,0-.27.29,1.08,1.08,0,0,0-.09.46v2.61Z"/><path class="cls-1" d="M109.24,31.47a1.09,1.09,0,0,0,.66-.19,1.18,1.18,0,0,0,.41-.55,2.5,2.5,0,0,0,.14-.88,2.73,2.73,0,0,0-.12-.83,1.26,1.26,0,0,0-.4-.57,1.07,1.07,0,0,0-.69-.21,1.16,1.16,0,0,0-.66.18,1.25,1.25,0,0,0-.42.55,2.54,2.54,0,0,0-.14.88,2.64,2.64,0,0,0,.12.83,1.24,1.24,0,0,0,.4.58,1.12,1.12,0,0,0,.7.21m0,.5a1.91,1.91,0,0,1-1-.24,1.59,1.59,0,0,1-.64-.71,2.62,2.62,0,0,1-.23-1.15,2.8,2.8,0,0,1,.21-1.12,1.62,1.62,0,0,1,.62-.74,1.81,1.81,0,0,1,1-.27,1.85,1.85,0,0,1,1,.24,1.61,1.61,0,0,1,.64.72,2.75,2.75,0,0,1,.22,1.17,2.83,2.83,0,0,1-.2,1.09,1.6,1.6,0,0,1-.61.74,1.79,1.79,0,0,1-1,.27"/><path class="cls-1" d="M113.78,28.28h-.92v2.63a1,1,0,0,0,0,.34.25.25,0,0,0,.16.14,1.42,1.42,0,0,0,.33,0h.42v.42a.89.89,0,0,1-.23.05l-.35,0a1.22,1.22,0,0,1-.6-.12.55.55,0,0,1-.3-.32,1.45,1.45,0,0,1-.09-.54V28.28h-.66v-.46h.67l.15-1.17h.46v1.17h.92Z"/><path class="cls-1" d="M115,29.56h2.36a1.83,1.83,0,0,0-.12-.68,1.06,1.06,0,0,0-1-.66,1.15,1.15,0,0,0-.69.2,1.17,1.17,0,0,0-.39.51,1.51,1.51,0,0,0-.13.63m0,.44a2,2,0,0,0,.13.74,1.3,1.3,0,0,0,.41.54,1.24,1.24,0,0,0,.71.2,1.29,1.29,0,0,0,.72-.2.86.86,0,0,0,.37-.55h.59a1.32,1.32,0,0,1-.33.68,1.42,1.42,0,0,1-.6.42,2,2,0,0,1-.74.14,1.92,1.92,0,0,1-1-.25,1.68,1.68,0,0,1-.66-.71,2.41,2.41,0,0,1-.24-1.12,2.65,2.65,0,0,1,.22-1.13,1.56,1.56,0,0,1,.63-.75,1.74,1.74,0,0,1,1-.27,1.79,1.79,0,0,1,1,.24,1.62,1.62,0,0,1,.6.69,2.69,2.69,0,0,1,.2,1.07V30Z"/><path class="cls-1" d="M120.46,27.74a1.73,1.73,0,0,1,.76.16,1.4,1.4,0,0,1,.57.45,1.46,1.46,0,0,1,.28.71h-.56a.83.83,0,0,0-.18-.42.92.92,0,0,0-.36-.28,1,1,0,0,0-.51-.11,1.14,1.14,0,0,0-.9.39,1.83,1.83,0,0,0-.35,1.22,1.92,1.92,0,0,0,.32,1.18,1.06,1.06,0,0,0,.94.44,1.19,1.19,0,0,0,.51-.1,1,1,0,0,0,.54-.7h.55a1.43,1.43,0,0,1-.29.69,1.46,1.46,0,0,1-.57.44,1.68,1.68,0,0,1-.75.16,1.85,1.85,0,0,1-1-.24,1.66,1.66,0,0,1-.66-.7,3,3,0,0,1,0-2.27,1.72,1.72,0,0,1,.63-.75,1.79,1.79,0,0,1,1-.27"/><path class="cls-1" d="M122.93,31.89V26h.6v2.38a1.19,1.19,0,0,1,.28-.32,1.47,1.47,0,0,1,1-.34,1.72,1.72,0,0,1,.72.15,1.21,1.21,0,0,1,.51.41,1.12,1.12,0,0,1,.19.63v2.94h-.62v-2.8a.74.74,0,0,0-.26-.6,1,1,0,0,0-.7-.22,1.68,1.68,0,0,0-.55.1,1,1,0,0,0-.42.29.74.74,0,0,0-.15.48v2.75Z"/><path class="cls-1" d="M127.31,31.89V27.82h.59v.59a1.17,1.17,0,0,1,.28-.32,1.32,1.32,0,0,1,.44-.24,1.72,1.72,0,0,1,.58-.09,1.64,1.64,0,0,1,.71.15,1.23,1.23,0,0,1,.52.49,1.57,1.57,0,0,1,.19.83v2.66H130v-2.6a1,1,0,0,0-.26-.77,1,1,0,0,0-.7-.25,1.5,1.5,0,0,0-.56.1.88.88,0,0,0-.41.29.7.7,0,0,0-.16.48v2.75Z"/><path class="cls-1" d="M131.72,31.89h.6V27.82h-.6Zm0-5h.65V26.2h-.65Z"/><polygon class="cls-1" points="136.93 31.89 136.27 31.89 134.94 29.77 134.07 30.67 134.07 31.89 133.46 31.89 133.46 26.04 134.07 26.04 134.07 29.95 136.09 27.82 136.82 27.82 135.35 29.35 136.93 31.89"/><path class="cls-1" d="M138.18,33.19a1.68,1.68,0,0,1-.58-.09v-.4H138a1,1,0,0,0,.36,0,.67.67,0,0,0,.24-.11.64.64,0,0,0,.14-.15,1,1,0,0,0,.09-.17l.16-.43-1.59-4H138l1.27,3.27,1.24-3.27h.61l-1.74,4.45a1.66,1.66,0,0,1-.32.55,1.06,1.06,0,0,1-.42.29,1.54,1.54,0,0,1-.5.08"/><path class="cls-1" d="M60.44,40a1.31,1.31,0,0,0,.44-.07,1.71,1.71,0,0,0,.4-.22,1.06,1.06,0,0,0,.29-.31.67.67,0,0,0,.12-.34v-.73H61a3.25,3.25,0,0,0-.85.11.91.91,0,0,0-.48.29.73.73,0,0,0-.16.51.66.66,0,0,0,.25.55,1,1,0,0,0,.65.2m-.17.46a1.54,1.54,0,0,1-.7-.14,1,1,0,0,1-.46-.39,1.1,1.1,0,0,1-.17-.63,1.13,1.13,0,0,1,.46-1A2.79,2.79,0,0,1,60.9,38l.79,0v-.34a.84.84,0,0,0-.25-.64,1.06,1.06,0,0,0-.74-.23,1.21,1.21,0,0,0-.66.18.8.8,0,0,0-.35.56h-.56a1.23,1.23,0,0,1,.22-.65,1.27,1.27,0,0,1,.54-.42,2.34,2.34,0,0,1,.84-.14,2.12,2.12,0,0,1,.85.15,1,1,0,0,1,.52.44,1.33,1.33,0,0,1,.18.72v2.84h-.53l0-.79a1.48,1.48,0,0,1-.62.68,1.89,1.89,0,0,1-.82.18"/><path class="cls-1" d="M65.37,40.42H66V36.35h-.59Zm0-5H66v-.68h-.64Z"/><path class="cls-1" d="M67.1,40.42V36.35h.59v.59a1.37,1.37,0,0,1,.72-.57,1.76,1.76,0,0,1,.58-.09,1.73,1.73,0,0,1,.72.16,1.15,1.15,0,0,1,.52.48,1.63,1.63,0,0,1,.19.84v2.66h-.61V37.81a1,1,0,0,0-.27-.76.93.93,0,0,0-.69-.25,1.73,1.73,0,0,0-.56.09,1.06,1.06,0,0,0-.42.29.76.76,0,0,0-.15.48v2.76Z"/><path class="cls-1" d="M73.61,36.35v.46h-1v3.61H72V36.81h-.89v-.46H72V35.7a1,1,0,0,1,.24-.73,1,1,0,0,1,.72-.24h.72v.44H73a.4.4,0,0,0-.35.14.82.82,0,0,0-.09.42v.62Z"/><path class="cls-1" d="M75.9,40a1.08,1.08,0,0,0,.65-.19,1.16,1.16,0,0,0,.41-.55,2.28,2.28,0,0,0,.15-.88,2.37,2.37,0,0,0-.13-.83,1.25,1.25,0,0,0-.39-.58,1.09,1.09,0,0,0-.69-.21,1.1,1.1,0,0,0-1.08.74,2.31,2.31,0,0,0-.15.88,2.63,2.63,0,0,0,.13.83,1.34,1.34,0,0,0,.4.58,1.1,1.1,0,0,0,.7.21m0,.49a2,2,0,0,1-1-.23,1.58,1.58,0,0,1-.64-.71,2.51,2.51,0,0,1-.23-1.15,2.76,2.76,0,0,1,.21-1.12,1.7,1.7,0,0,1,.62-.75,1.87,1.87,0,0,1,1-.26,1.85,1.85,0,0,1,1,.24,1.59,1.59,0,0,1,.63.72,2.68,2.68,0,0,1,.23,1.17,2.65,2.65,0,0,1-.21,1.09,1.63,1.63,0,0,1-.6.74,1.79,1.79,0,0,1-1,.26"/><path class="cls-1" d="M78.6,40.42V36.35h.58v.73a1.13,1.13,0,0,1,.29-.46,1.17,1.17,0,0,1,.42-.27,1.55,1.55,0,0,1,.47-.08h.2a.53.53,0,0,1,.15,0v.6a.42.42,0,0,0-.17,0h-.18a1.49,1.49,0,0,0-.42,0,1.2,1.2,0,0,0-.37.15.83.83,0,0,0-.26.3.88.88,0,0,0-.1.45v2.62Z"/><path class="cls-1" d="M81.45,40.42V36.35H82v.59a1.54,1.54,0,0,1,.45-.47,1.29,1.29,0,0,1,.76-.2,1.53,1.53,0,0,1,.47.07,1.44,1.44,0,0,1,.42.23,1,1,0,0,1,.3.37,1.27,1.27,0,0,1,.51-.49,1.46,1.46,0,0,1,.73-.18,1.72,1.72,0,0,1,.44.06,1.11,1.11,0,0,1,.76.68,2,2,0,0,1,.12.75v2.66h-.61V37.81a1.19,1.19,0,0,0-.13-.62.6.6,0,0,0-.33-.3,1,1,0,0,0-.42-.09,1.21,1.21,0,0,0-.44.08.89.89,0,0,0-.38.26.77.77,0,0,0-.16.52v2.76h-.61V37.57a.69.69,0,0,0-.14-.43.78.78,0,0,0-.34-.25.93.93,0,0,0-.4-.09,1.19,1.19,0,0,0-.44.09.78.78,0,0,0-.53.77v2.76Z"/><path class="cls-1" d="M89.34,40a1.31,1.31,0,0,0,.44-.07,1.71,1.71,0,0,0,.4-.22,1.06,1.06,0,0,0,.29-.31.59.59,0,0,0,.12-.34v-.73h-.66a3.17,3.17,0,0,0-.84.11.91.91,0,0,0-.49.29.73.73,0,0,0-.16.51.66.66,0,0,0,.25.55,1,1,0,0,0,.65.2m-.17.46a1.56,1.56,0,0,1-.7-.14A1.1,1.1,0,0,1,88,40a1.19,1.19,0,0,1-.17-.63,1.15,1.15,0,0,1,.46-1A2.79,2.79,0,0,1,89.8,38l.79,0v-.34a.88.88,0,0,0-.24-.64,1.08,1.08,0,0,0-.75-.23,1.15,1.15,0,0,0-.65.18.78.78,0,0,0-.36.56H88a1.23,1.23,0,0,1,.22-.65,1.27,1.27,0,0,1,.54-.42,2.38,2.38,0,0,1,.84-.14,2.12,2.12,0,0,1,.85.15,1,1,0,0,1,.52.44,1.33,1.33,0,0,1,.18.72v2.84h-.53l0-.79a1.43,1.43,0,0,1-.62.68,1.86,1.86,0,0,1-.82.18"/><path class="cls-1" d="M93.74,35.87l-1-.85h.59l.6.52.56-.52h.63l-1,.85Zm.21.4a1.73,1.73,0,0,1,.76.16,1.4,1.4,0,0,1,.57.45,1.58,1.58,0,0,1,.29.7H95a.88.88,0,0,0-.17-.41,1.12,1.12,0,0,0-.36-.29,1.21,1.21,0,0,0-.52-.1,1.14,1.14,0,0,0-.9.39,1.83,1.83,0,0,0-.35,1.22A2,2,0,0,0,93,39.57,1.08,1.08,0,0,0,94,40a1.16,1.16,0,0,0,.51-.11.94.94,0,0,0,.36-.29.9.9,0,0,0,.18-.4h.55a1.34,1.34,0,0,1-.29.69,1.5,1.5,0,0,1-.56.44,1.87,1.87,0,0,1-.76.15,1.9,1.9,0,0,1-1-.23,1.55,1.55,0,0,1-.65-.71,2.52,2.52,0,0,1-.24-1.16,2.59,2.59,0,0,1,.22-1.11,1.56,1.56,0,0,1,.62-.74,1.79,1.79,0,0,1,1-.27"/><path class="cls-1" d="M96.46,40.42V36.35h.59v.59a1.07,1.07,0,0,1,.28-.33,1.32,1.32,0,0,1,.44-.24,1.72,1.72,0,0,1,.58-.09,1.65,1.65,0,0,1,.71.16,1.15,1.15,0,0,1,.52.48,1.63,1.63,0,0,1,.19.84v2.66h-.61V37.81a1,1,0,0,0-.26-.76,1,1,0,0,0-.7-.25,1.73,1.73,0,0,0-.56.09,1,1,0,0,0-.41.29.71.71,0,0,0-.16.48v2.76Z"/><path class="cls-1" d="M102.71,34.73h.74l-1.06,1.14h-.49Zm-1.67,7a1.64,1.64,0,0,1-.58-.09v-.4h.41a1.31,1.31,0,0,0,.37,0,.75.75,0,0,0,.24-.1.7.7,0,0,0,.14-.16l.09-.16.16-.43-1.59-4h.62l1.26,3.27,1.25-3.27h.6l-1.73,4.45a1.78,1.78,0,0,1-.33.55,1,1,0,0,1-.41.28,1.35,1.35,0,0,1-.5.08"/><path class="cls-1" d="M106.19,36.27a1.73,1.73,0,0,1,.76.16,1.4,1.4,0,0,1,.57.45,1.46,1.46,0,0,1,.28.7h-.56a1,1,0,0,0-.18-.41.94.94,0,0,0-.36-.29,1.19,1.19,0,0,0-.51-.1,1.14,1.14,0,0,0-.9.39,1.78,1.78,0,0,0-.35,1.22,2,2,0,0,0,.31,1.18,1.12,1.12,0,0,0,1,.44,1.19,1.19,0,0,0,.51-.11.94.94,0,0,0,.36-.29.88.88,0,0,0,.17-.4h.56a1.43,1.43,0,0,1-.29.69,1.46,1.46,0,0,1-.57.44,1.83,1.83,0,0,1-.75.15,1.85,1.85,0,0,1-1-.23,1.63,1.63,0,0,1-.66-.71,2.66,2.66,0,0,1-.23-1.16,2.75,2.75,0,0,1,.21-1.11,1.58,1.58,0,0,1,.63-.74,1.79,1.79,0,0,1,1-.27"/><path class="cls-1" d="M108.66,40.42V34.57h.6v2.37a1.34,1.34,0,0,1,.71-.56,1.76,1.76,0,0,1,.58-.09,1.9,1.9,0,0,1,.73.14,1.31,1.31,0,0,1,.51.42,1.07,1.07,0,0,1,.19.63v2.94h-.62V37.61a.76.76,0,0,0-.26-.6,1.1,1.1,0,0,0-.7-.21,1.42,1.42,0,0,0-.55.1,1,1,0,0,0-.42.28.77.77,0,0,0-.15.49v2.75Z"/><path class="cls-1" d="M116.89,36.81H116v2.62a1,1,0,0,0,0,.35.23.23,0,0,0,.17.13,1.27,1.27,0,0,0,.32,0h.42v.43a1,1,0,0,1-.23,0l-.35,0a1.37,1.37,0,0,1-.6-.11.61.61,0,0,1-.3-.33,1.38,1.38,0,0,1-.09-.54V36.81h-.66v-.46h.68l.14-1.18H116v1.17h.92Z"/><path class="cls-1" d="M118.07,38.09h2.37a1.79,1.79,0,0,0-.13-.68,1,1,0,0,0-.38-.48,1.11,1.11,0,0,0-.65-.18,1,1,0,0,0-.68.2,1.22,1.22,0,0,0-.4.5,1.59,1.59,0,0,0-.13.64m0,.43a2,2,0,0,0,.13.75,1.16,1.16,0,0,0,.42.53,1.13,1.13,0,0,0,.71.2,1.28,1.28,0,0,0,.71-.19.85.85,0,0,0,.37-.55H121a1.39,1.39,0,0,1-.32.68,1.81,1.81,0,0,1-.6.42,2.11,2.11,0,0,1-.75.13,2,2,0,0,1-1-.24,1.65,1.65,0,0,1-.67-.71,2.41,2.41,0,0,1-.24-1.12,2.81,2.81,0,0,1,.22-1.13,1.69,1.69,0,0,1,.63-.76,1.82,1.82,0,0,1,1-.26,1.74,1.74,0,0,1,1,.24,1.56,1.56,0,0,1,.6.69,2.52,2.52,0,0,1,.2,1.07v.25Z"/><path class="cls-1" d="M123.57,36.27a1.73,1.73,0,0,1,.76.16,1.4,1.4,0,0,1,.57.45,1.47,1.47,0,0,1,.29.7h-.57a.88.88,0,0,0-.17-.41.94.94,0,0,0-.36-.29,1.21,1.21,0,0,0-.52-.1,1.14,1.14,0,0,0-.9.39,1.83,1.83,0,0,0-.35,1.22,2,2,0,0,0,.32,1.18,1.08,1.08,0,0,0,.94.44,1.21,1.21,0,0,0,.52-.11,1.12,1.12,0,0,0,.36-.29,1,1,0,0,0,.17-.4h.55a1.42,1.42,0,0,1-.28.69,1.62,1.62,0,0,1-.57.44,1.87,1.87,0,0,1-.76.15,1.9,1.9,0,0,1-1-.23,1.55,1.55,0,0,1-.65-.71,2.52,2.52,0,0,1-.24-1.16,2.59,2.59,0,0,1,.22-1.11,1.62,1.62,0,0,1,.62-.74,1.79,1.79,0,0,1,1-.27"/><path class="cls-1" d="M126.05,40.42V34.57h.59v2.37a1.65,1.65,0,0,1,.28-.32,1.43,1.43,0,0,1,.44-.24,1.72,1.72,0,0,1,.58-.09,1.81,1.81,0,0,1,.72.14,1.31,1.31,0,0,1,.51.42,1,1,0,0,1,.19.63v2.94h-.61V37.61a.74.74,0,0,0-.27-.6,1.08,1.08,0,0,0-.7-.21,1.45,1.45,0,0,0-.55.1.94.94,0,0,0-.41.28.72.72,0,0,0-.16.49v2.75Z"/><path class="cls-1" d="M130.42,40.42V36.35H131v.59a1.23,1.23,0,0,1,.28-.33,1.43,1.43,0,0,1,.44-.24,1.79,1.79,0,0,1,1.3.07,1.12,1.12,0,0,1,.51.48,1.63,1.63,0,0,1,.2.84v2.66h-.62V37.81a1,1,0,0,0-.26-.76,1,1,0,0,0-.7-.25,1.67,1.67,0,0,0-.55.09,1,1,0,0,0-.42.29.77.77,0,0,0-.16.48v2.76Z"/><path class="cls-1" d="M136.41,40a1,1,0,0,0,.65-.19,1.25,1.25,0,0,0,.42-.55,2.5,2.5,0,0,0,.14-.88,2.64,2.64,0,0,0-.12-.83,1.34,1.34,0,0,0-.4-.58,1.09,1.09,0,0,0-.69-.21,1.17,1.17,0,0,0-.66.19,1.25,1.25,0,0,0-.42.55,2.32,2.32,0,0,0-.14.88,2.64,2.64,0,0,0,.12.83,1.34,1.34,0,0,0,.4.58,1.12,1.12,0,0,0,.7.21m0,.49a2,2,0,0,1-1-.23,1.64,1.64,0,0,1-.64-.71,2.65,2.65,0,0,1-.23-1.15,2.76,2.76,0,0,1,.21-1.12,1.7,1.7,0,0,1,.62-.75,1.87,1.87,0,0,1,1-.26,1.85,1.85,0,0,1,1,.24,1.67,1.67,0,0,1,.64.72,2.69,2.69,0,0,1,.22,1.17,2.83,2.83,0,0,1-.2,1.09,1.65,1.65,0,0,1-.61.74,1.79,1.79,0,0,1-1,.26"/><path class="cls-1" d="M140.06,40.46a1.24,1.24,0,0,1-.47-.08.73.73,0,0,1-.3-.24.94.94,0,0,1-.14-.34,1.84,1.84,0,0,1,0-.41V34.57h.61v4.77a.8.8,0,0,0,.12.49.45.45,0,0,0,.33.17h.23v.4l-.18.05h-.16"/><path class="cls-1" d="M143.24,34.73H144l-1.05,1.14h-.49ZM142.7,40a1.08,1.08,0,0,0,.65-.19,1.16,1.16,0,0,0,.41-.55,2.28,2.28,0,0,0,.15-.88,2.63,2.63,0,0,0-.13-.83,1.33,1.33,0,0,0-.39-.58,1.09,1.09,0,0,0-.69-.21A1.23,1.23,0,0,0,142,37a1.16,1.16,0,0,0-.41.55,2.31,2.31,0,0,0-.15.88,2.37,2.37,0,0,0,.13.83,1.26,1.26,0,0,0,.4.58,1.1,1.1,0,0,0,.7.21m0,.49a2,2,0,0,1-1-.23,1.66,1.66,0,0,1-.65-.71,2.65,2.65,0,0,1-.22-1.15,2.76,2.76,0,0,1,.21-1.12,1.64,1.64,0,0,1,.62-.75,1.87,1.87,0,0,1,1-.26,1.9,1.9,0,0,1,1,.24,1.59,1.59,0,0,1,.63.72,2.68,2.68,0,0,1,.23,1.17,2.65,2.65,0,0,1-.21,1.09,1.65,1.65,0,0,1-.61.74,1.77,1.77,0,0,1-1,.26"/><path class="cls-1" d="M147,38.42a1.25,1.25,0,0,0,.76-.21.74.74,0,0,0,.29-.64.79.79,0,0,0-.29-.66,1.41,1.41,0,0,0-1.53,0,.79.79,0,0,0-.29.65.75.75,0,0,0,.28.63,1.19,1.19,0,0,0,.78.22m.1,2.92a2,2,0,0,0,.92-.18.61.61,0,0,0,.32-.56.56.56,0,0,0-.19-.43,1,1,0,0,0-.58-.19l-1.2-.08A.79.79,0,0,0,146,40a.83.83,0,0,0-.3.26.56.56,0,0,0-.12.36.6.6,0,0,0,.36.54,2.29,2.29,0,0,0,1.11.2m-.11.42a3.06,3.06,0,0,1-1.45-.28.87.87,0,0,1-.53-.81.74.74,0,0,1,.1-.38,1.05,1.05,0,0,1,.24-.27,1.69,1.69,0,0,1,.27-.17.64.64,0,0,0,.16-.1l-.17-.1a.38.38,0,0,1-.16-.15.35.35,0,0,1-.07-.23.45.45,0,0,1,.17-.34,1.1,1.1,0,0,1,.52-.24,1.58,1.58,0,0,1-.55-.47,1.16,1.16,0,0,1-.2-.65,1.12,1.12,0,0,1,.21-.68,1.31,1.31,0,0,1,.59-.45,2.5,2.5,0,0,1,.93-.16,1.83,1.83,0,0,1,.66.1,1.79,1.79,0,0,1,.51.27l.19-.09.29-.12.3-.12.21-.09v.61l-.71.14a1.42,1.42,0,0,1,.1.29,1.13,1.13,0,0,1,0,.3,1.17,1.17,0,0,1-.73,1.11,2.25,2.25,0,0,1-.93.16h-.2a1.72,1.72,0,0,0-.64.1c-.12.06-.17.13-.17.2s0,.13.17.16a3.67,3.67,0,0,0,.62.09h.39l.5,0a1.54,1.54,0,0,1,1,.31.93.93,0,0,1,.34.77,1.07,1.07,0,0,1-.48.9,2.53,2.53,0,0,1-1.47.34"/><path class="cls-1" d="M150,40.42h.6V36.35H150Zm0-5h.65v-.68H150Z"/><path class="cls-1" d="M152.41,34.73h.71l-.79,1.14h-.48Zm0,5.69h-.59V36.35h.59Z"/><path class="cls-2" d="M60.64,17.05l-.85-.8h.64l.48.47.45-.47H62l-.83.8ZM59,22.19v-.4l2.49-3.66H59.14v-.68h3.49v.39L60.1,21.51h2.5v.68Z"/><rect class="cls-2" x="63.38" y="17.45" width="0.8" height="4.74"/><polygon class="cls-2" points="65.29 17.45 66.09 17.45 66.09 21.5 68.23 21.5 68.23 22.19 65.28 22.19 65.29 17.45"/><rect class="cls-2" x="68.98" y="17.45" width="0.8" height="4.74"/><polygon class="cls-2" points="73.98 17.45 74.78 17.45 74.78 22.19 74.06 22.19 71.68 18.71 71.68 22.19 70.88 22.19 70.88 17.45 71.66 17.45 73.98 20.84 73.98 17.45"/><path class="cls-2" d="M77.56,22.26a2.52,2.52,0,0,1-.67-.09,2,2,0,0,1-.6-.26,1.5,1.5,0,0,1-.44-.43,1.31,1.31,0,0,1-.22-.6h.83a.77.77,0,0,0,.21.41,1,1,0,0,0,.38.24,1.4,1.4,0,0,0,.51.09,1.78,1.78,0,0,0,.53-.08.84.84,0,0,0,.38-.23.53.53,0,0,0,.14-.37.59.59,0,0,0-.1-.33.82.82,0,0,0-.29-.22,2.07,2.07,0,0,0-.42-.14l-.87-.19a1.53,1.53,0,0,1-.84-.42,1.15,1.15,0,0,1-.32-.83,1.3,1.3,0,0,1,.23-.75,1.54,1.54,0,0,1,.63-.49,2.21,2.21,0,0,1,.91-.18,2.43,2.43,0,0,1,1,.19,1.46,1.46,0,0,1,.62.52,1.25,1.25,0,0,1,.21.7h-.81a.76.76,0,0,0-.52-.69,1.85,1.85,0,0,0-.48-.07,1.44,1.44,0,0,0-.37.05,1,1,0,0,0-.3.13.7.7,0,0,0-.2.22.64.64,0,0,0-.07.28.48.48,0,0,0,.16.38,1.41,1.41,0,0,0,.57.24l.85.19a1.83,1.83,0,0,1,.64.23,1.28,1.28,0,0,1,.37.36,1.19,1.19,0,0,1,.17.41,1.94,1.94,0,0,1,0,.4,1.11,1.11,0,0,1-.22.68,1.52,1.52,0,0,1-.65.47,2.42,2.42,0,0,1-1,.18"/><polygon class="cls-2" points="84.13 22.19 83.25 22.19 81.89 19.88 81.14 20.77 81.14 22.19 80.31 22.19 80.31 17.45 81.14 17.45 81.14 19.75 83.04 17.45 83.97 17.45 82.47 19.3 84.13 22.19"/><path class="cls-2" d="M87.17,16.1H88l-.94.95H86.5Zm-1.09,4.2h1.43l-.71-2.07Zm-1.42,1.89,1.71-4.74h.86l1.7,4.74h-.8L87.71,21H85.9l-.43,1.19Z"/><path class="cls-2" d="M94.69,20.46a2.37,2.37,0,0,1-.18,1,1.29,1.29,0,0,1-.59.61,2.17,2.17,0,0,1-1.06.22,2.13,2.13,0,0,1-1-.22,1.25,1.25,0,0,1-.59-.63,2.43,2.43,0,0,1-.18-1v-3h.82V20.5a1.07,1.07,0,0,0,.27.81,1,1,0,0,0,.73.26,1.2,1.2,0,0,0,.55-.11.79.79,0,0,0,.35-.35,1.35,1.35,0,0,0,.12-.61V17.45h.81Z"/><polygon class="cls-2" points="98.83 17.45 99.63 17.45 99.63 22.19 98.91 22.19 96.52 18.71 96.52 22.19 95.73 22.19 95.73 17.45 96.51 17.45 98.83 20.84 98.83 17.45"/><rect class="cls-2" x="100.73" y="17.45" width="0.8" height="4.74"/><polygon class="cls-2" points="106.42 17.45 104.77 22.19 103.84 22.19 102.21 17.45 102.98 17.45 104.31 21.27 105.65 17.45 106.42 17.45"/><polygon class="cls-2" points="107.11 22.19 107.11 17.45 110.24 17.45 110.24 18.14 107.91 18.14 107.91 19.47 109.97 19.47 109.97 20.14 107.91 20.14 107.91 21.5 110.29 21.5 110.29 22.19 107.11 22.19"/><path class="cls-2" d="M112.88,19.64a1.09,1.09,0,0,0,.71-.21.72.72,0,0,0,.25-.59.68.68,0,0,0-.24-.56.88.88,0,0,0-.62-.21h-1v1.57Zm1.8,2.55h-.83L113,20.27h-1.1v1.92h-.79V17.45h1.92a2.16,2.16,0,0,1,.9.17,1.11,1.11,0,0,1,.52.48,1.46,1.46,0,0,1,.17.71,1.49,1.49,0,0,1-.12.64,1.26,1.26,0,0,1-.33.42,1.54,1.54,0,0,1-.42.26Z"/><polygon class="cls-2" points="115.39 22.19 115.39 21.79 117.89 18.13 115.53 18.13 115.53 17.45 119.02 17.45 119.02 17.84 116.5 21.51 119 21.51 119 22.19 115.39 22.19"/><rect class="cls-2" x="119.78" y="17.45" width="0.8" height="4.74"/><polygon class="cls-2" points="121.25 18.17 121.25 17.45 124.95 17.45 124.95 18.17 123.53 18.17 123.53 22.19 122.73 22.19 122.73 18.17 121.25 18.17"/><path class="cls-2" d="M126.19,20.3h1.43l-.71-2.07Zm-1.42,1.89,1.71-4.74h.86l1.7,4.74h-.8L127.82,21H126l-.44,1.19Z"/><polygon class="cls-2" points="134.93 17.45 133.28 22.19 132.35 22.19 130.72 17.45 131.49 17.45 132.82 21.27 134.16 17.45 134.93 17.45"/><path class="cls-2" d="M138.41,17.05l-.85-.8h.63l.49.47.44-.47h.67l-.82.8Zm-1.64,5.14v-.4l2.49-3.66h-2.35v-.68h3.48v.39l-2.52,3.67h2.5v.68Z"/><rect class="cls-2" x="141.15" y="17.45" width="0.8" height="4.74"/><polygon class="cls-2" points="143.05 17.45 143.86 17.45 143.86 21.5 146 21.5 146 22.19 143.05 22.19 143.05 17.45"/><rect class="cls-2" x="146.75" y="17.45" width="0.8" height="4.74"/><polygon class="cls-2" points="151.75 17.45 152.55 17.45 152.55 22.19 151.83 22.19 149.45 18.71 149.45 22.19 148.65 22.19 148.65 17.45 149.43 17.45 151.75 20.84 151.75 17.45"/><polygon class="cls-2" points="153.66 22.19 153.66 17.45 156.79 17.45 156.79 18.14 154.46 18.14 154.46 19.47 156.51 19.47 156.51 20.14 154.45 20.14 154.45 21.5 156.84 21.5 156.84 22.19 153.66 22.19"/><rect class="cls-1" x="51.03" y="16.25" width="0.46" height="24.17"/><path class="cls-1" d="M43,35.09c-6.45-5-4.94-10.69-3.83-14.81l0-.07a12.52,12.52,0,0,0,.65-3.78A2.57,2.57,0,0,0,39,14.68a1.91,1.91,0,0,0-1.44-.5,2.85,2.85,0,0,0-1.16.32c-9.2,4.69-14.57,4.42-17.78,4.26h-.1c-1.28-.06-3-.15-3.88.65a1.49,1.49,0,0,0-.47,1.14A3.32,3.32,0,0,0,15,22.1c4.56,5.48,4.75,13.71,4.82,16.81a8.75,8.75,0,0,0,.06,1.19,2.85,2.85,0,0,0,2.83,2.42,2.89,2.89,0,0,0,1.92-.74c3.88-3.6,9.64-3.85,13.88-4a22.38,22.38,0,0,0,4-.38l.11,0a1.27,1.27,0,0,0,.92-1.22A1.25,1.25,0,0,0,43,35.09Zm-3.62-18.6a12,12,0,0,1-.63,3.6l0,.07c-.73,2.73-1.63,6.1-.41,9.54a26.61,26.61,0,0,0-5.44-5.31c4.81-5.45,5.8-8.14,6-9.18A2.13,2.13,0,0,1,39.39,16.49Zm-2.77-1.58a2.27,2.27,0,0,1,1-.27,1.43,1.43,0,0,1,.86.21c0,.49-.4,3-5.93,9.27a30,30,0,0,0-11.31-4.83C24.56,19.24,29.44,18.56,36.62,14.91Zm-22,5.64a1.08,1.08,0,0,1,.32-.81,3.7,3.7,0,0,1,2.38-.56c.41,0,.82,0,1.17,0h.07a29.57,29.57,0,0,1,13.76,5.11c-1,1.15-2.23,2.43-3.64,3.86a34.53,34.53,0,0,0-3.17,3.66,52.75,52.75,0,0,1-9.35-8.92c-.27-.38-.55-.76-.86-1.13A2.77,2.77,0,0,1,14.63,20.55ZM20.29,40a10.63,10.63,0,0,1-.05-1.12c-.06-2.67-.22-9.1-3.13-14.41a51.44,51.44,0,0,0,8.24,7.6c-3.68,5.07-3.67,8.67-3.54,9.81A2.45,2.45,0,0,1,20.29,40Zm4,1.43a2.42,2.42,0,0,1-1.6.61,2.31,2.31,0,0,1-.37,0c-.11-.73-.38-4.39,3.43-9.67a26.18,26.18,0,0,0,12.23,5C33.73,37.5,28.14,37.86,24.27,41.45Zm18.21-4.56-.08,0a8.58,8.58,0,0,1-1,.18c-5.13.31-10.3-1.34-15.46-5A31.54,31.54,0,0,1,29,28.51c1.42-1.44,2.64-2.74,3.69-3.92A26.18,26.18,0,0,1,38.87,31a13.57,13.57,0,0,0,3.88,4.52.81.81,0,0,1-.27,1.42Z"/></svg>